<?xml version="1.0" standalone="no"?>
<!DOCTYPE svg PUBLIC "-//W3C//DTD SVG 20010904//EN"
 "http://www.w3.org/TR/2001/REC-SVG-20010904/DTD/svg10.dtd">
<svg version="1.0" xmlns="http://www.w3.org/2000/svg"
 width="269.000000pt" height="56.000000pt" viewBox="0 0 269.000000 56.000000"
 preserveAspectRatio="xMidYMid meet">
<metadata>
Created by potrace 1.16, written by Peter Selinger 2001-2019
</metadata>
<g transform="translate(0.000000,56.000000) scale(0.100000,-0.100000)"
fill="#000000" stroke="none">
<path d="M0 300 l0 -240 240 0 240 0 0 240 0 240 -240 0 -240 0 0 -240z m410
135 l0 -35 -110 0 -110 0 0 35 0 35 110 0 110 0 0 -35z m-270 -195 l0 -110
-35 0 -35 0 0 110 0 110 35 0 35 0 0 -110z m270 0 l0 -110 -110 0 -110 0 0
110 0 110 110 0 110 0 0 -110z"/>
<path d="M1120 300 l0 -180 45 0 45 0 0 180 0 180 -45 0 -45 0 0 -180z"/>
<path d="M1250 300 l0 -180 45 0 45 0 0 180 0 180 -45 0 -45 0 0 -180z"/>
<path d="M638 351 c-27 -24 -32 -36 -36 -88 -5 -71 13 -115 58 -138 71 -37
170 3 170 69 0 22 -75 22 -84 0 -3 -9 -15 -14 -28 -12 -21 3 -23 8 -23 63 0
55 2 60 23 63 17 3 25 -2 29 -17 4 -17 13 -21 44 -21 35 0 39 3 39 26 0 15
-12 38 -29 55 -25 24 -37 29 -80 29 -42 0 -56 -5 -83 -29z"/>
<path d="M910 367 c-62 -31 -80 -159 -30 -212 47 -50 141 -57 192 -16 l23 19
-24 26 c-22 23 -25 24 -47 9 -27 -17 -69 -11 -78 12 -4 13 8 15 75 15 l81 0
-7 47 c-8 55 -26 86 -61 101 -33 16 -93 15 -124 -1z"/>
<path d="M1682 364 c-51 -36 -68 -127 -34 -194 21 -43 56 -62 105 -56 42 5 49
-9 13 -25 -19 -9 -31 -8 -55 4 -30 15 -32 15 -48 -10 -16 -25 -16 -26 6 -44
17 -14 39 -19 82 -19 51 0 63 4 91 29 l33 29 3 151 3 151 -40 0 c-25 0 -41 -5
-41 -12 0 -9 -3 -9 -12 0 -17 17 -79 15 -106 -4z"/>
<path d="M1962 364 c-54 -37 -71 -147 -31 -198 43 -55 111 -70 175 -40 45 21
48 27 25 55 -17 21 -21 22 -50 9 -24 -10 -38 -10 -56 -2 -45 21 -27 32 50 32
l75 0 0 40 c0 80 -41 120 -122 120 -24 0 -54 -7 -66 -16z"/>
<path d="M2180 250 l0 -130 40 0 39 0 3 93 3 92 28 3 27 3 0 -95 0 -96 45 0
45 0 0 104 c0 89 -3 107 -21 130 -22 28 -73 35 -110 16 -13 -7 -19 -7 -19 0 0
5 -18 10 -40 10 l-40 0 0 -130z"/>
<path d="M2494 361 c-59 -36 -72 -155 -23 -207 46 -49 140 -56 191 -15 l23 19
-24 26 c-22 23 -25 24 -47 9 -27 -17 -69 -11 -78 12 -4 13 7 15 74 15 90 0 92
2 69 83 -19 70 -116 100 -185 58z"/>
<path d="M1397 342 c-16 -17 -15 -20 18 -52 19 -19 35 -39 35 -45 0 -6 -16
-26 -35 -45 -26 -26 -32 -37 -24 -47 17 -20 30 -16 70 23 l36 35 31 -35 c35
-40 44 -43 62 -21 11 13 8 22 -23 53 l-36 37 34 40 c32 37 33 41 18 58 -16 17
-18 16 -55 -20 l-38 -37 -38 37 c-37 36 -39 37 -55 19z"/>
</g>
</svg>
